<?xml version="1.0" encoding="UTF-8"?>
<!DOCTYPE svg PUBLIC "-//W3C//DTD SVG 1.1//EN" "http://www.w3.org/Graphics/SVG/1.1/DTD/svg11.dtd">
<svg xmlns="http://www.w3.org/2000/svg" version="1.1" width="1536px" height="1024px" style="shape-rendering:geometricPrecision; text-rendering:geometricPrecision; image-rendering:optimizeQuality; fill-rule:evenodd; clip-rule:evenodd" xmlns:xlink="http://www.w3.org/1999/xlink">
<g><path style="opacity:1" fill="#0c0c0c" d="M -0.5,-0.5 C 511.5,-0.5 1023.5,-0.5 1535.5,-0.5C 1535.5,340.833 1535.5,682.167 1535.5,1023.5C 1023.5,1023.5 511.5,1023.5 -0.5,1023.5C -0.5,682.167 -0.5,340.833 -0.5,-0.5 Z"/></g>
<g><path style="opacity:1" fill="#f4f4f4" d="M 997.5,277.5 C 1014.02,276.183 1020.19,283.516 1016,299.5C 1011.87,305.97 1006.04,308.137 998.5,306C 996.884,305.385 995.551,304.385 994.5,303C 993.5,302.333 992.5,302.333 991.5,303C 976.121,312.349 961.121,322.183 946.5,332.5C 950.39,341.329 950.39,350.162 946.5,359C 947.487,361.321 949.154,362.987 951.5,364C 973.167,377.5 994.833,391 1016.5,404.5C 1024.92,398.632 1032.75,399.299 1040,406.5C 1045.29,423.419 1039.12,430.919 1021.5,429C 1013.85,424.546 1011.18,418.046 1013.5,409.5C 1013.02,408.522 1012.36,407.689 1011.5,407C 988.665,393.084 965.998,378.917 943.5,364.5C 936.039,372.898 926.706,376.898 915.5,376.5C 914.038,387.607 912.038,398.607 909.5,409.5C 921.685,415.263 924.852,424.263 919,436.5C 913.681,442.167 907.181,444.001 899.5,442C 888.449,436.054 885.949,427.554 892,416.5C 895.623,412.439 900.123,410.105 905.5,409.5C 906.949,398.141 908.615,386.808 910.5,375.5C 898.121,372.119 890.454,364.119 887.5,351.5C 884.016,350.095 880.682,350.261 877.5,352C 857.822,353.106 838.155,354.273 818.5,355.5C 815.552,367.476 808.219,371.309 796.5,367C 789.273,361.007 787.773,353.841 792,345.5C 800,337.5 808,337.5 816,345.5C 817.009,347.025 817.509,348.692 817.5,350.5C 840.795,348.503 864.128,347.17 887.5,346.5C 887.642,331.185 894.975,321.019 909.5,316C 923.179,313.428 934.679,317.262 944,327.5C 959.233,317.272 974.733,307.438 990.5,298C 987.127,289.286 989.461,282.452 997.5,277.5 Z"/></g>
<g><path style="opacity:1" fill="#f8f8f8" d="M 821.5,401.5 C 832.833,401.5 844.167,401.5 855.5,401.5C 855.5,463.5 855.5,525.5 855.5,587.5C 844.5,587.5 833.5,587.5 822.5,587.5C 822.829,581.463 822.496,575.463 821.5,569.5C 820.893,569.624 820.56,569.957 820.5,570.5C 807.849,585.891 791.515,592.391 771.5,590C 742.489,584.993 724.322,568.16 717,539.5C 712.794,519.439 715.46,500.439 725,482.5C 746.845,452.22 774.678,445.054 808.5,461C 812.668,464.002 816.335,467.502 819.5,471.5C 819.56,472.043 819.893,472.376 820.5,472.5C 821.5,448.843 821.833,425.176 821.5,401.5 Z"/></g>
<g><path style="opacity:1" fill="#f7f7f7" d="M 715.5,587.5 C 702.754,587.813 690.087,587.48 677.5,586.5C 673.163,574.488 668.83,562.488 664.5,550.5C 637.498,550.333 610.498,550.5 583.5,551C 578.407,563.017 573.74,575.184 569.5,587.5C 556.989,587.829 544.655,587.495 532.5,586.5C 556.563,527.817 580.729,469.15 605,410.5C 617.754,409.511 630.587,409.178 643.5,409.5C 667.494,468.823 691.494,528.156 715.5,587.5 Z"/></g>
<g><path style="opacity:1" fill="#6a696c" d="M 821.5,400.5 C 821.5,400.833 821.5,401.167 821.5,401.5C 821.833,425.176 821.5,448.843 820.5,472.5C 819.893,472.376 819.56,472.043 819.5,471.5C 820.167,447.833 820.833,424.167 821.5,400.5 Z"/></g>
<g><path style="opacity:1" fill="#0e0e0f" d="M 622.5,450.5 C 623.376,450.369 624.043,450.702 624.5,451.5C 633.696,473.753 642.696,496.087 651.5,518.5C 632.842,519.666 614.176,519.833 595.5,519C 604.919,496.328 613.919,473.495 622.5,450.5 Z"/></g>
<g><path style="opacity:1" fill="#f7f7f7" d="M 864.5,643.5 C 863.526,633.582 863.193,623.582 863.5,613.5C 866.385,613.806 869.052,613.473 871.5,612.5C 879.061,612.44 883.894,608.774 886,601.5C 886.853,597.531 887.519,593.531 888,589.5C 888.5,544.835 888.667,500.168 888.5,455.5C 900.167,455.5 911.833,455.5 923.5,455.5C 923.667,501.835 923.5,548.168 923,594.5C 920.445,630.879 900.945,647.212 864.5,643.5 Z"/></g>
<g><path style="opacity:1" fill="#d9d9d8" d="M 821.5,401.5 C 821.5,401.167 821.5,400.833 821.5,400.5C 833.167,400.5 844.833,400.5 856.5,400.5C 856.5,462.833 856.5,525.167 856.5,587.5C 856.167,587.5 855.833,587.5 855.5,587.5C 855.5,525.5 855.5,463.5 855.5,401.5C 844.167,401.5 832.833,401.5 821.5,401.5 Z"/></g>
<g><path style="opacity:1" fill="#0d0d0d" d="M 778.5,483.5 C 798.99,480.988 812.823,489.321 820,508.5C 823.733,525.07 819.9,539.57 808.5,552C 788.075,564.635 770.575,561.468 756,542.5C 746.837,522.965 749.67,505.465 764.5,490C 768.892,486.967 773.559,484.8 778.5,483.5 Z"/></g>
<g><path style="opacity:1" fill="#f6f6f6" d="M 957.5,547.5 C 981.223,546.724 989.723,557.724 983,580.5C 972.216,592.558 960.549,593.558 948,583.5C 938.446,568.011 941.613,556.011 957.5,547.5 Z"/></g>
<g><path style="opacity:1" fill="#747576" d="M 532.5,586.5 C 544.655,587.495 556.989,587.829 569.5,587.5C 556.994,588.825 544.327,588.825 531.5,587.5C 531.624,586.893 531.957,586.56 532.5,586.5 Z"/></g>
<g><path style="opacity:1" fill="#727377" d="M 677.5,586.5 C 690.087,587.48 702.754,587.813 715.5,587.5C 709.342,588.166 703.009,588.5 696.5,588.5C 689.796,588.496 683.463,587.83 677.5,586.5 Z"/></g>
<g><path style="opacity:1" fill="#828385" d="M 820.5,570.5 C 820.56,569.957 820.893,569.624 821.5,569.5C 822.496,575.463 822.829,581.463 822.5,587.5C 833.5,587.5 844.5,587.5 855.5,587.5C 855.833,587.5 856.167,587.5 856.5,587.5C 845.012,588.495 833.345,588.828 821.5,588.5C 821.823,582.31 821.49,576.31 820.5,570.5 Z"/></g>
<g><path style="opacity:1" fill="#b6b5b8" d="M 871.5,612.5 C 869.052,613.473 866.385,613.806 863.5,613.5C 863.193,623.582 863.526,633.582 864.5,643.5C 862.525,633.554 861.858,623.221 862.5,612.5C 865.5,612.5 868.5,612.5 871.5,612.5 Z"/></g>
</svg>
